<svg xmlns="http://www.w3.org/2000/svg" width="900" height="420" viewBox="0 0 900 420">
  <rect width="100%" height="100%" fill="#f8fafc" />
  <text x="50" y="30" font-family="Arial, sans-serif" font-size="20" fill="#0f172a">Equity Curve</text>
  <line x1="50" y1="370" x2="850" y2="370" stroke="#94a3b8" stroke-width="1" />
  <line x1="50" y1="50" x2="50" y2="370" stroke="#94a3b8" stroke-width="1" />
  <polyline fill="none" stroke="#2563eb" stroke-width="3" points="50.00,370.00 122.73,348.67 195.45,306.00 268.18,327.33 340.91,284.67 413.64,242.00 486.36,199.33 559.09,220.67 631.82,156.67 704.55,114.00 777.27,135.33 850.00,50.00" />
  <polyline fill="none" stroke="#f97316" stroke-width="3" points="50.00,370.00 122.73,348.67 195.45,306.00 268.18,327.33 340.91,284.67 413.64,242.00 486.36,199.33 559.09,220.67 631.82,156.67 704.55,114.00 777.27,135.33 850.00,50.00" />
  <text x="50" y="405" font-family="Arial, sans-serif" font-size="12" fill="#475569">2024-01-02</text>
  <text x="765" y="405" font-family="Arial, sans-serif" font-size="12" fill="#475569">2024-01-18</text>
  <text x="55" y="65" font-family="Arial, sans-serif" font-size="12" fill="#475569">Max: 11,500.00</text>
  <text x="55" y="360" font-family="Arial, sans-serif" font-size="12" fill="#475569">Min: 10,000.00</text>
  <text x="680" y="30" font-family="Arial, sans-serif" font-size="12" fill="#2563eb">Strategy</text>
  <text x="680" y="48" font-family="Arial, sans-serif" font-size="12" fill="#f97316">Benchmark</text>
</svg>
