<svg xmlns="http://www.w3.org/2000/svg" width="900" height="420" viewBox="0 0 900 420">
  <rect width="100%" height="100%" fill="#f8fafc" />
  <text x="50" y="30" font-family="Arial, sans-serif" font-size="20" fill="#0f172a">Equity Curve</text>
  <line x1="50" y1="370" x2="850" y2="370" stroke="#94a3b8" stroke-width="1" />
  <line x1="50" y1="50" x2="50" y2="370" stroke="#94a3b8" stroke-width="1" />
  <polyline fill="none" stroke="#2563eb" stroke-width="3" points="50.00,55.10 58.08,50.00 66.16,66.27 74.24,51.99 82.32,57.57 90.40,85.97 98.48,99.79 106.57,117.81 114.65,130.89 122.73,126.99 130.81,120.79 138.89,103.15 146.97,89.66 155.05,100.58 163.13,93.82 171.21,119.26 179.29,112.81 187.37,108.00 195.45,91.71 203.54,89.63 211.62,117.54 219.70,107.36 227.78,117.60 235.86,125.29 243.94,122.03 252.02,122.59 260.10,106.30 268.18,102.28 276.26,104.35 284.34,100.35 292.42,97.93 300.51,98.57 308.59,99.83 316.67,99.05 324.75,107.05 332.83,129.19 340.91,129.37 348.99,117.64 357.07,107.36 365.15,118.47 373.23,116.04 381.31,120.40 389.39,133.89 397.47,157.30 405.56,162.93 413.64,156.30 421.72,167.37 429.80,188.95 437.88,174.38 445.96,143.68 454.04,134.70 462.12,113.35 470.20,111.17 478.28,210.94 486.36,217.60 494.44,231.94 502.53,257.15 510.61,250.97 518.69,293.51 526.77,278.02 534.85,252.19 542.93,252.88 551.01,271.33 559.09,276.57 567.17,277.65 575.25,286.90 583.33,281.22 591.41,283.58 599.49,286.13 607.58,312.58 615.66,303.19 623.74,279.14 631.82,276.82 639.90,295.44 647.98,283.39 656.06,272.24 664.14,269.61 672.22,258.25 680.30,261.81 688.38,260.88 696.46,268.45 704.55,270.27 712.63,276.53 720.71,289.61 728.79,280.49 736.87,281.61 744.95,297.41 753.03,303.15 761.11,317.97 769.19,315.63 777.27,336.90 785.35,340.42 793.43,350.93 801.52,370.00 809.60,365.46 817.68,342.22 825.76,343.88 833.84,335.40 841.92,336.60 850.00,337.83" />
  <polyline fill="none" stroke="#f97316" stroke-width="3" points="50.00,55.10 58.08,50.00 66.16,66.27 74.24,51.99 82.32,57.57 90.40,85.97 98.48,99.79 106.57,117.81 114.65,130.89 122.73,126.99 130.81,120.79 138.89,103.15 146.97,89.66 155.05,100.58 163.13,93.82 171.21,119.26 179.29,112.81 187.37,108.00 195.45,91.71 203.54,89.63 211.62,117.54 219.70,107.36 227.78,117.60 235.86,125.29 243.94,122.03 252.02,122.59 260.10,106.30 268.18,102.28 276.26,104.35 284.34,100.35 292.42,97.93 300.51,98.57 308.59,99.83 316.67,99.05 324.75,107.05 332.83,129.19 340.91,129.37 348.99,117.64 357.07,107.36 365.15,118.47 373.23,116.04 381.31,120.40 389.39,133.89 397.47,157.30 405.56,162.93 413.64,156.30 421.72,167.37 429.80,188.95 437.88,174.38 445.96,143.68 454.04,134.70 462.12,113.35 470.20,111.17 478.28,210.94 486.36,217.60 494.44,231.94 502.53,257.15 510.61,250.97 518.69,293.51 526.77,278.02 534.85,252.19 542.93,252.88 551.01,271.33 559.09,276.57 567.17,277.65 575.25,286.90 583.33,281.22 591.41,283.58 599.49,286.13 607.58,312.58 615.66,303.19 623.74,279.14 631.82,276.82 639.90,295.44 647.98,283.39 656.06,272.24 664.14,269.61 672.22,258.25 680.30,261.81 688.38,260.88 696.46,268.45 704.55,270.27 712.63,276.53 720.71,289.61 728.79,280.49 736.87,281.61 744.95,297.41 753.03,303.15 761.11,317.97 769.19,315.63 777.27,336.90 785.35,340.42 793.43,350.93 801.52,370.00 809.60,365.46 817.68,342.22 825.76,343.88 833.84,335.40 841.92,336.60 850.00,337.83" />
  <text x="50" y="405" font-family="Arial, sans-serif" font-size="12" fill="#475569">2025-11-11</text>
  <text x="765" y="405" font-family="Arial, sans-serif" font-size="12" fill="#475569">2026-04-07</text>
  <text x="55" y="65" font-family="Arial, sans-serif" font-size="12" fill="#475569">Max: 10,048.36</text>
  <text x="55" y="360" font-family="Arial, sans-serif" font-size="12" fill="#475569">Min: 7,013.64</text>
  <text x="680" y="30" font-family="Arial, sans-serif" font-size="12" fill="#2563eb">Strategy</text>
  <text x="680" y="48" font-family="Arial, sans-serif" font-size="12" fill="#f97316">Benchmark</text>
</svg>
